<svg width="24" height="24" viewBox="0 0 24 24" fill="none" xmlns="http://www.w3.org/2000/svg">
<rect width="24" height="24" rx="12" fill="white"/>
<path fill-rule="evenodd" clip-rule="evenodd" d="M16 12C16 12.1326 15.9474 12.2598 15.8536 12.3536C15.7598 12.4473 15.6326 12.5 15.5 12.5H9.70704L11.854 14.646C11.9005 14.6925 11.9374 14.7477 11.9626 14.8084C11.9877 14.8692 12.0007 14.9343 12.0007 15C12.0007 15.0658 11.9877 15.1309 11.9626 15.1916C11.9374 15.2523 11.9005 15.3075 11.854 15.354C11.8076 15.4005 11.7524 15.4374 11.6916 15.4625C11.6309 15.4877 11.5658 15.5007 11.5 15.5007C11.4343 15.5007 11.3692 15.4877 11.3085 15.4625C11.2477 15.4374 11.1925 15.4005 11.146 15.354L8.14604 12.354C8.09948 12.3076 8.06253 12.2524 8.03733 12.1917C8.01212 12.1309 7.99915 12.0658 7.99915 12C7.99915 11.9343 8.01212 11.8691 8.03733 11.8084C8.06253 11.7476 8.09948 11.6925 8.14604 11.646L11.146 8.64602C11.2399 8.55213 11.3673 8.49939 11.5 8.49939C11.6328 8.49939 11.7602 8.55213 11.854 8.64602C11.9479 8.73991 12.0007 8.86725 12.0007 9.00002C12.0007 9.1328 11.9479 9.26013 11.854 9.35402L9.70704 11.5H15.5C15.6326 11.5 15.7598 11.5527 15.8536 11.6465C15.9474 11.7402 16 11.8674 16 12Z" fill="black"/>
</svg>
